<mxfile host="app.diagrams.net" agent="Mozilla/5.0 (Macintosh; Intel Mac OS X 10_15_7) AppleWebKit/537.36 (KHTML, like Gecko) Chrome/141.0.0.0 Safari/537.36" version="26.2.14">
  <diagram name="Page-1" id="ecfO-nCwB3yylDAoADse">
    <mxGraphModel dx="1018" dy="631" grid="1" gridSize="10" guides="1" tooltips="1" connect="1" arrows="1" fold="1" page="1" pageScale="1" pageWidth="850" pageHeight="1100" math="0" shadow="0">
      <root>
        <mxCell id="0" />
        <mxCell id="1" parent="0" />
        <mxCell id="SNLCqmOHwrR77-IF4bY6-10" style="edgeStyle=orthogonalEdgeStyle;rounded=0;orthogonalLoop=1;jettySize=auto;html=1;" parent="1" source="SNLCqmOHwrR77-IF4bY6-5" target="SNLCqmOHwrR77-IF4bY6-9" edge="1">
          <mxGeometry relative="1" as="geometry" />
        </mxCell>
        <mxCell id="SNLCqmOHwrR77-IF4bY6-5" value="Fetch Data from Etherscan API" style="rounded=1;whiteSpace=wrap;html=1;" parent="1" vertex="1">
          <mxGeometry x="380" y="160" width="120" height="60" as="geometry" />
        </mxCell>
        <mxCell id="SNLCqmOHwrR77-IF4bY6-12" style="edgeStyle=orthogonalEdgeStyle;rounded=0;orthogonalLoop=1;jettySize=auto;html=1;" parent="1" source="SNLCqmOHwrR77-IF4bY6-9" target="SNLCqmOHwrR77-IF4bY6-11" edge="1">
          <mxGeometry relative="1" as="geometry" />
        </mxCell>
        <mxCell id="SNLCqmOHwrR77-IF4bY6-9" value="Feature&amp;nbsp;&lt;div&gt;Extraction&lt;/div&gt;" style="ellipse;whiteSpace=wrap;html=1;" parent="1" vertex="1">
          <mxGeometry x="380" y="260" width="120" height="70" as="geometry" />
        </mxCell>
        <mxCell id="SNLCqmOHwrR77-IF4bY6-14" style="edgeStyle=orthogonalEdgeStyle;rounded=0;orthogonalLoop=1;jettySize=auto;html=1;entryX=0.5;entryY=0;entryDx=0;entryDy=0;" parent="1" source="SNLCqmOHwrR77-IF4bY6-11" target="SNLCqmOHwrR77-IF4bY6-13" edge="1">
          <mxGeometry relative="1" as="geometry" />
        </mxCell>
        <mxCell id="SNLCqmOHwrR77-IF4bY6-20" style="edgeStyle=orthogonalEdgeStyle;rounded=0;orthogonalLoop=1;jettySize=auto;html=1;exitX=1;exitY=1;exitDx=0;exitDy=0;" parent="1" source="SNLCqmOHwrR77-IF4bY6-11" target="SNLCqmOHwrR77-IF4bY6-18" edge="1">
          <mxGeometry relative="1" as="geometry" />
        </mxCell>
        <mxCell id="SNLCqmOHwrR77-IF4bY6-11" value="Machine Learning Model" style="ellipse;whiteSpace=wrap;html=1;" parent="1" vertex="1">
          <mxGeometry x="380" y="370" width="120" height="70" as="geometry" />
        </mxCell>
        <mxCell id="s6kEypWvYNPyHoMZ6hXT-9" style="edgeStyle=orthogonalEdgeStyle;rounded=0;orthogonalLoop=1;jettySize=auto;html=1;entryX=0.5;entryY=0;entryDx=0;entryDy=0;" edge="1" parent="1" source="SNLCqmOHwrR77-IF4bY6-13" target="s6kEypWvYNPyHoMZ6hXT-8">
          <mxGeometry relative="1" as="geometry" />
        </mxCell>
        <mxCell id="SNLCqmOHwrR77-IF4bY6-13" value="Trust Score Generation&lt;div&gt;(0 - 100)&lt;/div&gt;" style="rounded=1;whiteSpace=wrap;html=1;" parent="1" vertex="1">
          <mxGeometry x="380" y="480" width="120" height="60" as="geometry" />
        </mxCell>
        <mxCell id="SNLCqmOHwrR77-IF4bY6-16" value="Output" style="text;html=1;align=center;verticalAlign=middle;whiteSpace=wrap;rounded=0;fontStyle=1" parent="1" vertex="1">
          <mxGeometry x="410" y="670" width="60" height="30" as="geometry" />
        </mxCell>
        <mxCell id="s6kEypWvYNPyHoMZ6hXT-10" style="edgeStyle=orthogonalEdgeStyle;rounded=0;orthogonalLoop=1;jettySize=auto;html=1;entryX=0.5;entryY=0;entryDx=0;entryDy=0;" edge="1" parent="1" source="SNLCqmOHwrR77-IF4bY6-17" target="s6kEypWvYNPyHoMZ6hXT-8">
          <mxGeometry relative="1" as="geometry">
            <Array as="points">
              <mxPoint x="280" y="580" />
              <mxPoint x="440" y="580" />
            </Array>
          </mxGeometry>
        </mxCell>
        <mxCell id="SNLCqmOHwrR77-IF4bY6-17" value="Labels&lt;div&gt;(Safe, Neutral, Unsafe)&lt;/div&gt;" style="rounded=1;whiteSpace=wrap;html=1;" parent="1" vertex="1">
          <mxGeometry x="220" y="480" width="120" height="60" as="geometry" />
        </mxCell>
        <mxCell id="s6kEypWvYNPyHoMZ6hXT-11" style="edgeStyle=orthogonalEdgeStyle;rounded=0;orthogonalLoop=1;jettySize=auto;html=1;entryX=0.5;entryY=0;entryDx=0;entryDy=0;" edge="1" parent="1" source="SNLCqmOHwrR77-IF4bY6-18" target="s6kEypWvYNPyHoMZ6hXT-8">
          <mxGeometry relative="1" as="geometry">
            <Array as="points">
              <mxPoint x="600" y="580" />
              <mxPoint x="440" y="580" />
            </Array>
          </mxGeometry>
        </mxCell>
        <mxCell id="SNLCqmOHwrR77-IF4bY6-18" value="Risk Flags" style="rounded=1;whiteSpace=wrap;html=1;" parent="1" vertex="1">
          <mxGeometry x="540" y="480" width="120" height="60" as="geometry" />
        </mxCell>
        <mxCell id="SNLCqmOHwrR77-IF4bY6-19" style="edgeStyle=orthogonalEdgeStyle;rounded=0;orthogonalLoop=1;jettySize=auto;html=1;exitX=0;exitY=1;exitDx=0;exitDy=0;" parent="1" source="SNLCqmOHwrR77-IF4bY6-11" edge="1">
          <mxGeometry relative="1" as="geometry">
            <mxPoint x="280" y="480" as="targetPoint" />
          </mxGeometry>
        </mxCell>
        <mxCell id="SNLCqmOHwrR77-IF4bY6-21" value="Latest 10,000 Transactions" style="text;html=1;align=left;verticalAlign=middle;whiteSpace=wrap;rounded=0;" parent="1" vertex="1">
          <mxGeometry x="507" y="162.5" width="70" height="55" as="geometry" />
        </mxCell>
        <mxCell id="s6kEypWvYNPyHoMZ6hXT-7" style="edgeStyle=orthogonalEdgeStyle;rounded=0;orthogonalLoop=1;jettySize=auto;html=1;entryX=0;entryY=0.5;entryDx=0;entryDy=0;" edge="1" parent="1" source="s6kEypWvYNPyHoMZ6hXT-1" target="s6kEypWvYNPyHoMZ6hXT-3">
          <mxGeometry relative="1" as="geometry" />
        </mxCell>
        <mxCell id="s6kEypWvYNPyHoMZ6hXT-1" value="Customer wants to know the Risk score for Wallet" style="rounded=1;whiteSpace=wrap;html=1;" vertex="1" parent="1">
          <mxGeometry x="210" y="40" width="120" height="60" as="geometry" />
        </mxCell>
        <mxCell id="s6kEypWvYNPyHoMZ6hXT-4" style="edgeStyle=orthogonalEdgeStyle;rounded=0;orthogonalLoop=1;jettySize=auto;html=1;entryX=0.5;entryY=0;entryDx=0;entryDy=0;" edge="1" parent="1" source="s6kEypWvYNPyHoMZ6hXT-3" target="SNLCqmOHwrR77-IF4bY6-5">
          <mxGeometry relative="1" as="geometry" />
        </mxCell>
        <mxCell id="s6kEypWvYNPyHoMZ6hXT-3" value="Calls WIRE Wallet API" style="rounded=1;whiteSpace=wrap;html=1;" vertex="1" parent="1">
          <mxGeometry x="380" y="40" width="120" height="60" as="geometry" />
        </mxCell>
        <mxCell id="s6kEypWvYNPyHoMZ6hXT-5" value="Wallet Address" style="text;html=1;align=center;verticalAlign=middle;resizable=0;points=[];autosize=1;strokeColor=none;fillColor=none;" vertex="1" parent="1">
          <mxGeometry x="395" y="111" width="100" height="30" as="geometry" />
        </mxCell>
        <mxCell id="s6kEypWvYNPyHoMZ6hXT-8" value="JSON Output back to Customer" style="rounded=1;whiteSpace=wrap;html=1;" vertex="1" parent="1">
          <mxGeometry x="380" y="610" width="120" height="60" as="geometry" />
        </mxCell>
      </root>
    </mxGraphModel>
  </diagram>
</mxfile>
